<?xml version="1.0" encoding="UTF-8"?>
<svg id="Camada_1" xmlns="http://www.w3.org/2000/svg" version="1.1" viewBox="0 0 31.88 32">
  <!-- Generator: Adobe Illustrator 30.0.0, SVG Export Plug-In . SVG Version: 2.1.1 Build 123)  -->
  <defs>
    <style>
      .st0 {
        fill: #fff;
        fill-rule: evenodd;
      }

      .st1 {
        fill: #f4b400;
      }
    </style>
  </defs>
  <g id="Layer_x5F_1">
    <circle class="st1" cx="15.94" cy="16" r="15.76"/>
    <g id="_364069208">
      <path id="_364069640" class="st0" d="M20.42,10.64c0-.46-.38-.84-.85-.84h-.93v1.16c0,.77-.63,1.4-1.4,1.4s-1.4-.63-1.4-1.4v-1.16h-1.32v1.16c0,.77-.63,1.4-1.4,1.4s-1.4-.63-1.4-1.4v-1.16h-1.32v1.16c0,.77-.63,1.4-1.4,1.4s-1.4-.63-1.4-1.4v-1.16h-.93c-.47,0-.85.38-.85.84v12.96c0,.46.38.84.85.84h12.92c.47,0,.85-.38.85-.84v-5l-1.71,1.74-4.2,2,1.96-4.25,3.95-4v-3.44h0ZM9.77,15.88c-.12,0-.23.1-.23.23s.1.23.23.23h7.01c.12,0,.23-.1.23-.23s-.1-.23-.23-.23h-7.01ZM9.92,18.81c-.12,0-.23.1-.23.23s.1.23.23.23h5.16c.12,0,.23-.1.23-.23s-.1-.23-.23-.23h-5.16ZM9.92,21.73c-.12,0-.23.1-.23.23s.1.23.23.23h3.67c.12,0,.23-.1.23-.23s-.1-.23-.23-.23h-3.67,0ZM9.77,12.96c-.12,0-.23.1-.23.23s.1.23.23.23h8.72c.12,0,.23-.1.23-.23s-.1-.23-.23-.23h-8.72Z"/>
      <g>
        <path id="_364069976" class="st0" d="M8.99,7.57c.52,0,.95.43.95.95v2.44c0,.52-.43.95-.95.95s-.95-.43-.95-.95v-2.44c0-.52.43-.95.95-.95h0Z"/>
        <path id="_364069928" class="st0" d="M13.11,7.57c.52,0,.95.43.95.95v2.44c0,.52-.43.95-.95.95s-.95-.43-.95-.95v-2.44c0-.52.43-.95.95-.95h0Z"/>
        <path id="_364069472" class="st0" d="M17.24,7.57c.52,0,.95.43.95.95v2.44c0,.52-.43.95-.95.95s-.95-.43-.95-.95v-2.44c0-.52.43-.95.95-.95h0Z"/>
      </g>
      <path id="_364069256" class="st0" d="M17,18.19l6.31-6.4.64.65-6.31,6.4-.64-.65h0ZM17.96,19.15l6.31-6.4.64.65-6.31,6.4-.64-.65h0ZM18.23,20.06l-.96.46-.97-.98.45-.97,1.48,1.5h0ZM16.84,20.73l-1.4.66.66-1.42.74.75ZM23.63,11.47l.55-.56c.39-.4,1.03-.4,1.42,0l.18.18c.39.4.39,1.04,0,1.44l-.55.56c-.53-.54-1.06-1.08-1.59-1.62h0Z"/>
    </g>
  </g>
</svg>